%TF.GenerationSoftware,KiCad,Pcbnew,(6.0.4)*%
%TF.CreationDate,2025-06-12T14:40:54+01:00*%
%TF.ProjectId,Ring_Resonator_with_solder_mask,52696e67-5f52-4657-936f-6e61746f725f,rev?*%
%TF.SameCoordinates,Original*%
%TF.FileFunction,Other,Comment*%
%FSLAX46Y46*%
G04 Gerber Fmt 4.6, Leading zero omitted, Abs format (unit mm)*
G04 Created by KiCad (PCBNEW (6.0.4)) date 2025-06-12 14:40:54*
%MOMM*%
%LPD*%
G01*
G04 APERTURE LIST*
%ADD10C,0.200000*%
%ADD11C,0.300000*%
G04 APERTURE END LIST*
D10*
X0Y24500000D02*
X0Y-24500000D01*
X0Y0D02*
X0Y7000000D01*
X18700000Y0D02*
X-35000000Y0D01*
D11*
X90009285Y12481429D02*
X89509285Y13195715D01*
X89152142Y12481429D02*
X89152142Y13981429D01*
X89723571Y13981429D01*
X89866428Y13910000D01*
X89937857Y13838572D01*
X90009285Y13695715D01*
X90009285Y13481429D01*
X89937857Y13338572D01*
X89866428Y13267143D01*
X89723571Y13195715D01*
X89152142Y13195715D01*
X91223571Y12552858D02*
X91080714Y12481429D01*
X90795000Y12481429D01*
X90652142Y12552858D01*
X90580714Y12695715D01*
X90580714Y13267143D01*
X90652142Y13410000D01*
X90795000Y13481429D01*
X91080714Y13481429D01*
X91223571Y13410000D01*
X91295000Y13267143D01*
X91295000Y13124286D01*
X90580714Y12981429D01*
X91866428Y12552858D02*
X92009285Y12481429D01*
X92295000Y12481429D01*
X92437857Y12552858D01*
X92509285Y12695715D01*
X92509285Y12767143D01*
X92437857Y12910000D01*
X92295000Y12981429D01*
X92080714Y12981429D01*
X91937857Y13052858D01*
X91866428Y13195715D01*
X91866428Y13267143D01*
X91937857Y13410000D01*
X92080714Y13481429D01*
X92295000Y13481429D01*
X92437857Y13410000D01*
X93366428Y12481429D02*
X93223571Y12552858D01*
X93152142Y12624286D01*
X93080714Y12767143D01*
X93080714Y13195715D01*
X93152142Y13338572D01*
X93223571Y13410000D01*
X93366428Y13481429D01*
X93580714Y13481429D01*
X93723571Y13410000D01*
X93795000Y13338572D01*
X93866428Y13195715D01*
X93866428Y12767143D01*
X93795000Y12624286D01*
X93723571Y12552858D01*
X93580714Y12481429D01*
X93366428Y12481429D01*
X94509285Y13481429D02*
X94509285Y12481429D01*
X94509285Y13338572D02*
X94580714Y13410000D01*
X94723571Y13481429D01*
X94937857Y13481429D01*
X95080714Y13410000D01*
X95152142Y13267143D01*
X95152142Y12481429D01*
X96509285Y12481429D02*
X96509285Y13267143D01*
X96437857Y13410000D01*
X96295000Y13481429D01*
X96009285Y13481429D01*
X95866428Y13410000D01*
X96509285Y12552858D02*
X96366428Y12481429D01*
X96009285Y12481429D01*
X95866428Y12552858D01*
X95795000Y12695715D01*
X95795000Y12838572D01*
X95866428Y12981429D01*
X96009285Y13052858D01*
X96366428Y13052858D01*
X96509285Y13124286D01*
X97009285Y13481429D02*
X97580714Y13481429D01*
X97223571Y13981429D02*
X97223571Y12695715D01*
X97295000Y12552858D01*
X97437857Y12481429D01*
X97580714Y12481429D01*
X98295000Y12481429D02*
X98152142Y12552858D01*
X98080714Y12624286D01*
X98009285Y12767143D01*
X98009285Y13195715D01*
X98080714Y13338572D01*
X98152142Y13410000D01*
X98295000Y13481429D01*
X98509285Y13481429D01*
X98652142Y13410000D01*
X98723571Y13338572D01*
X98795000Y13195715D01*
X98795000Y12767143D01*
X98723571Y12624286D01*
X98652142Y12552858D01*
X98509285Y12481429D01*
X98295000Y12481429D01*
X99437857Y12481429D02*
X99437857Y13481429D01*
X99437857Y13195715D02*
X99509285Y13338572D01*
X99580714Y13410000D01*
X99723571Y13481429D01*
X99866428Y13481429D01*
X101509285Y12481429D02*
X101509285Y13981429D01*
X102223571Y13481429D02*
X102223571Y12481429D01*
X102223571Y13338572D02*
X102295000Y13410000D01*
X102437857Y13481429D01*
X102652142Y13481429D01*
X102795000Y13410000D01*
X102866428Y13267143D01*
X102866428Y12481429D01*
X104080714Y13267143D02*
X103580714Y13267143D01*
X103580714Y12481429D02*
X103580714Y13981429D01*
X104295000Y13981429D01*
X105080714Y12481429D02*
X104937857Y12552858D01*
X104866428Y12624286D01*
X104795000Y12767143D01*
X104795000Y13195715D01*
X104866428Y13338572D01*
X104937857Y13410000D01*
X105080714Y13481429D01*
X105295000Y13481429D01*
X105437857Y13410000D01*
X105509285Y13338572D01*
X105580714Y13195715D01*
X105580714Y12767143D01*
X105509285Y12624286D01*
X105437857Y12552858D01*
X105295000Y12481429D01*
X105080714Y12481429D01*
X106223571Y12624286D02*
X106295000Y12552858D01*
X106223571Y12481429D01*
X106152142Y12552858D01*
X106223571Y12624286D01*
X106223571Y12481429D01*
X106223571Y13410000D02*
X106295000Y13338572D01*
X106223571Y13267143D01*
X106152142Y13338572D01*
X106223571Y13410000D01*
X106223571Y13267143D01*
X89652142Y8437143D02*
X89152142Y8437143D01*
X89152142Y7651429D02*
X89152142Y9151429D01*
X89866428Y9151429D01*
X90652142Y7651429D02*
X90509285Y7722858D01*
X90437857Y7794286D01*
X90366428Y7937143D01*
X90366428Y8365715D01*
X90437857Y8508572D01*
X90509285Y8580000D01*
X90652142Y8651429D01*
X90866428Y8651429D01*
X91009285Y8580000D01*
X91080714Y8508572D01*
X91152142Y8365715D01*
X91152142Y7937143D01*
X91080714Y7794286D01*
X91009285Y7722858D01*
X90866428Y7651429D01*
X90652142Y7651429D01*
X91795000Y7651429D02*
X91795000Y8651429D01*
X91795000Y8365715D02*
X91866428Y8508572D01*
X91937857Y8580000D01*
X92080714Y8651429D01*
X92223571Y8651429D01*
X93795000Y7722858D02*
X93937857Y7651429D01*
X94223571Y7651429D01*
X94366428Y7722858D01*
X94437857Y7865715D01*
X94437857Y7937143D01*
X94366428Y8080000D01*
X94223571Y8151429D01*
X94009285Y8151429D01*
X93866428Y8222858D01*
X93795000Y8365715D01*
X93795000Y8437143D01*
X93866428Y8580000D01*
X94009285Y8651429D01*
X94223571Y8651429D01*
X94366428Y8580000D01*
X95723571Y8651429D02*
X95723571Y7651429D01*
X95080714Y8651429D02*
X95080714Y7865715D01*
X95152142Y7722858D01*
X95295000Y7651429D01*
X95509285Y7651429D01*
X95652142Y7722858D01*
X95723571Y7794286D01*
X96437857Y7651429D02*
X96437857Y9151429D01*
X96437857Y8580000D02*
X96580714Y8651429D01*
X96866428Y8651429D01*
X97009285Y8580000D01*
X97080714Y8508572D01*
X97152142Y8365715D01*
X97152142Y7937143D01*
X97080714Y7794286D01*
X97009285Y7722858D01*
X96866428Y7651429D01*
X96580714Y7651429D01*
X96437857Y7722858D01*
X97723571Y7722858D02*
X97866428Y7651429D01*
X98152142Y7651429D01*
X98295000Y7722858D01*
X98366428Y7865715D01*
X98366428Y7937143D01*
X98295000Y8080000D01*
X98152142Y8151429D01*
X97937857Y8151429D01*
X97795000Y8222858D01*
X97723571Y8365715D01*
X97723571Y8437143D01*
X97795000Y8580000D01*
X97937857Y8651429D01*
X98152142Y8651429D01*
X98295000Y8580000D01*
X98795000Y8651429D02*
X99366428Y8651429D01*
X99009285Y9151429D02*
X99009285Y7865715D01*
X99080714Y7722858D01*
X99223571Y7651429D01*
X99366428Y7651429D01*
X99866428Y7651429D02*
X99866428Y8651429D01*
X99866428Y8365715D02*
X99937857Y8508572D01*
X100009285Y8580000D01*
X100152142Y8651429D01*
X100295000Y8651429D01*
X101437857Y7651429D02*
X101437857Y8437143D01*
X101366428Y8580000D01*
X101223571Y8651429D01*
X100937857Y8651429D01*
X100795000Y8580000D01*
X101437857Y7722858D02*
X101295000Y7651429D01*
X100937857Y7651429D01*
X100795000Y7722858D01*
X100723571Y7865715D01*
X100723571Y8008572D01*
X100795000Y8151429D01*
X100937857Y8222858D01*
X101295000Y8222858D01*
X101437857Y8294286D01*
X101937857Y8651429D02*
X102509285Y8651429D01*
X102152142Y9151429D02*
X102152142Y7865715D01*
X102223571Y7722858D01*
X102366428Y7651429D01*
X102509285Y7651429D01*
X103580714Y7722858D02*
X103437857Y7651429D01*
X103152142Y7651429D01*
X103009285Y7722858D01*
X102937857Y7865715D01*
X102937857Y8437143D01*
X103009285Y8580000D01*
X103152142Y8651429D01*
X103437857Y8651429D01*
X103580714Y8580000D01*
X103652142Y8437143D01*
X103652142Y8294286D01*
X102937857Y8151429D01*
X106223571Y7651429D02*
X105366428Y7651429D01*
X105795000Y7651429D02*
X105795000Y9151429D01*
X105652142Y8937143D01*
X105509285Y8794286D01*
X105366428Y8722858D01*
X106866428Y7794286D02*
X106937857Y7722858D01*
X106866428Y7651429D01*
X106795000Y7722858D01*
X106866428Y7794286D01*
X106866428Y7651429D01*
X108223571Y9151429D02*
X107937857Y9151429D01*
X107795000Y9080000D01*
X107723571Y9008572D01*
X107580714Y8794286D01*
X107509285Y8508572D01*
X107509285Y7937143D01*
X107580714Y7794286D01*
X107652142Y7722858D01*
X107795000Y7651429D01*
X108080714Y7651429D01*
X108223571Y7722858D01*
X108295000Y7794286D01*
X108366428Y7937143D01*
X108366428Y8294286D01*
X108295000Y8437143D01*
X108223571Y8508572D01*
X108080714Y8580000D01*
X107795000Y8580000D01*
X107652142Y8508572D01*
X107580714Y8437143D01*
X107509285Y8294286D01*
X110152142Y7651429D02*
X110152142Y8651429D01*
X110152142Y8508572D02*
X110223571Y8580000D01*
X110366428Y8651429D01*
X110580714Y8651429D01*
X110723571Y8580000D01*
X110795000Y8437143D01*
X110795000Y7651429D01*
X110795000Y8437143D02*
X110866428Y8580000D01*
X111009285Y8651429D01*
X111223571Y8651429D01*
X111366428Y8580000D01*
X111437857Y8437143D01*
X111437857Y7651429D01*
X112152142Y7651429D02*
X112152142Y8651429D01*
X112152142Y8508572D02*
X112223571Y8580000D01*
X112366428Y8651429D01*
X112580714Y8651429D01*
X112723571Y8580000D01*
X112795000Y8437143D01*
X112795000Y7651429D01*
X112795000Y8437143D02*
X112866428Y8580000D01*
X113009285Y8651429D01*
X113223571Y8651429D01*
X113366428Y8580000D01*
X113437857Y8437143D01*
X113437857Y7651429D01*
X89866428Y2821429D02*
X89152142Y2821429D01*
X89152142Y4321429D01*
X90366428Y2821429D02*
X90366428Y3821429D01*
X90366428Y3535715D02*
X90437857Y3678572D01*
X90509285Y3750000D01*
X90652142Y3821429D01*
X90795000Y3821429D01*
X91295000Y2821429D02*
X91295000Y3821429D01*
X91295000Y4321429D02*
X91223571Y4250000D01*
X91295000Y4178572D01*
X91366428Y4250000D01*
X91295000Y4321429D01*
X91295000Y4178572D01*
X92009285Y3821429D02*
X92009285Y2821429D01*
X92009285Y3678572D02*
X92080714Y3750000D01*
X92223571Y3821429D01*
X92437857Y3821429D01*
X92580714Y3750000D01*
X92652142Y3607143D01*
X92652142Y2821429D01*
X94009285Y3821429D02*
X94009285Y2607143D01*
X93937857Y2464286D01*
X93866428Y2392858D01*
X93723571Y2321429D01*
X93509285Y2321429D01*
X93366428Y2392858D01*
X94009285Y2892858D02*
X93866428Y2821429D01*
X93580714Y2821429D01*
X93437857Y2892858D01*
X93366428Y2964286D01*
X93295000Y3107143D01*
X93295000Y3535715D01*
X93366428Y3678572D01*
X93437857Y3750000D01*
X93580714Y3821429D01*
X93866428Y3821429D01*
X94009285Y3750000D01*
X94723571Y3607143D02*
X95866428Y3607143D01*
X95866428Y3178572D02*
X94723571Y3178572D01*
X97366428Y2821429D02*
X96509285Y2821429D01*
X96937857Y2821429D02*
X96937857Y4321429D01*
X96795000Y4107143D01*
X96652142Y3964286D01*
X96509285Y3892858D01*
X98295000Y4321429D02*
X98437857Y4321429D01*
X98580714Y4250000D01*
X98652142Y4178572D01*
X98723571Y4035715D01*
X98795000Y3750000D01*
X98795000Y3392858D01*
X98723571Y3107143D01*
X98652142Y2964286D01*
X98580714Y2892858D01*
X98437857Y2821429D01*
X98295000Y2821429D01*
X98152142Y2892858D01*
X98080714Y2964286D01*
X98009285Y3107143D01*
X97937857Y3392858D01*
X97937857Y3750000D01*
X98009285Y4035715D01*
X98080714Y4178572D01*
X98152142Y4250000D01*
X98295000Y4321429D01*
X99723571Y4321429D02*
X99866428Y4321429D01*
X100009285Y4250000D01*
X100080714Y4178572D01*
X100152142Y4035715D01*
X100223571Y3750000D01*
X100223571Y3392858D01*
X100152142Y3107143D01*
X100080714Y2964286D01*
X100009285Y2892858D01*
X99866428Y2821429D01*
X99723571Y2821429D01*
X99580714Y2892858D01*
X99509285Y2964286D01*
X99437857Y3107143D01*
X99366428Y3392858D01*
X99366428Y3750000D01*
X99437857Y4035715D01*
X99509285Y4178572D01*
X99580714Y4250000D01*
X99723571Y4321429D01*
X100866428Y2821429D02*
X100866428Y3821429D01*
X100866428Y3678572D02*
X100937857Y3750000D01*
X101080714Y3821429D01*
X101295000Y3821429D01*
X101437857Y3750000D01*
X101509285Y3607143D01*
X101509285Y2821429D01*
X101509285Y3607143D02*
X101580714Y3750000D01*
X101723571Y3821429D01*
X101937857Y3821429D01*
X102080714Y3750000D01*
X102152142Y3607143D01*
X102152142Y2821429D01*
X102866428Y2821429D02*
X102866428Y3821429D01*
X102866428Y3678572D02*
X102937857Y3750000D01*
X103080714Y3821429D01*
X103295000Y3821429D01*
X103437857Y3750000D01*
X103509285Y3607143D01*
X103509285Y2821429D01*
X103509285Y3607143D02*
X103580714Y3750000D01*
X103723571Y3821429D01*
X103937857Y3821429D01*
X104080714Y3750000D01*
X104152142Y3607143D01*
X104152142Y2821429D01*
X90009285Y406429D02*
X89509285Y1120715D01*
X89152142Y406429D02*
X89152142Y1906429D01*
X89723571Y1906429D01*
X89866428Y1835000D01*
X89937857Y1763572D01*
X90009285Y1620715D01*
X90009285Y1406429D01*
X89937857Y1263572D01*
X89866428Y1192143D01*
X89723571Y1120715D01*
X89152142Y1120715D01*
X91295000Y406429D02*
X91295000Y1192143D01*
X91223571Y1335000D01*
X91080714Y1406429D01*
X90795000Y1406429D01*
X90652142Y1335000D01*
X91295000Y477858D02*
X91152142Y406429D01*
X90795000Y406429D01*
X90652142Y477858D01*
X90580714Y620715D01*
X90580714Y763572D01*
X90652142Y906429D01*
X90795000Y977858D01*
X91152142Y977858D01*
X91295000Y1049286D01*
X92652142Y406429D02*
X92652142Y1906429D01*
X92652142Y477858D02*
X92509285Y406429D01*
X92223571Y406429D01*
X92080714Y477858D01*
X92009285Y549286D01*
X91937857Y692143D01*
X91937857Y1120715D01*
X92009285Y1263572D01*
X92080714Y1335000D01*
X92223571Y1406429D01*
X92509285Y1406429D01*
X92652142Y1335000D01*
X93366428Y406429D02*
X93366428Y1406429D01*
X93366428Y1906429D02*
X93295000Y1835000D01*
X93366428Y1763572D01*
X93437857Y1835000D01*
X93366428Y1906429D01*
X93366428Y1763572D01*
X94723571Y1406429D02*
X94723571Y406429D01*
X94080714Y1406429D02*
X94080714Y620715D01*
X94152142Y477858D01*
X94295000Y406429D01*
X94509285Y406429D01*
X94652142Y477858D01*
X94723571Y549286D01*
X95366428Y477858D02*
X95509285Y406429D01*
X95795000Y406429D01*
X95937857Y477858D01*
X96009285Y620715D01*
X96009285Y692143D01*
X95937857Y835000D01*
X95795000Y906429D01*
X95580714Y906429D01*
X95437857Y977858D01*
X95366428Y1120715D01*
X95366428Y1192143D01*
X95437857Y1335000D01*
X95580714Y1406429D01*
X95795000Y1406429D01*
X95937857Y1335000D01*
X96652142Y1192143D02*
X97795000Y1192143D01*
X97795000Y763572D02*
X96652142Y763572D01*
X99295000Y406429D02*
X98437857Y406429D01*
X98866428Y406429D02*
X98866428Y1906429D01*
X98723571Y1692143D01*
X98580714Y1549286D01*
X98437857Y1477858D01*
X100223571Y1906429D02*
X100366428Y1906429D01*
X100509285Y1835000D01*
X100580714Y1763572D01*
X100652142Y1620715D01*
X100723571Y1335000D01*
X100723571Y977858D01*
X100652142Y692143D01*
X100580714Y549286D01*
X100509285Y477858D01*
X100366428Y406429D01*
X100223571Y406429D01*
X100080714Y477858D01*
X100009285Y549286D01*
X99937857Y692143D01*
X99866428Y977858D01*
X99866428Y1335000D01*
X99937857Y1620715D01*
X100009285Y1763572D01*
X100080714Y1835000D01*
X100223571Y1906429D01*
X101652142Y1906429D02*
X101795000Y1906429D01*
X101937857Y1835000D01*
X102009285Y1763572D01*
X102080714Y1620715D01*
X102152142Y1335000D01*
X102152142Y977858D01*
X102080714Y692143D01*
X102009285Y549286D01*
X101937857Y477858D01*
X101795000Y406429D01*
X101652142Y406429D01*
X101509285Y477858D01*
X101437857Y549286D01*
X101366428Y692143D01*
X101295000Y977858D01*
X101295000Y1335000D01*
X101366428Y1620715D01*
X101437857Y1763572D01*
X101509285Y1835000D01*
X101652142Y1906429D01*
X103866428Y1977858D02*
X102580714Y49286D01*
X104295000Y1763572D02*
X104366428Y1835000D01*
X104509285Y1906429D01*
X104866428Y1906429D01*
X105009285Y1835000D01*
X105080714Y1763572D01*
X105152142Y1620715D01*
X105152142Y1477858D01*
X105080714Y1263572D01*
X104223571Y406429D01*
X105152142Y406429D01*
X105795000Y1406429D02*
X105795000Y-93571D01*
X105795000Y1335000D02*
X105937857Y1406429D01*
X106223571Y1406429D01*
X106366428Y1335000D01*
X106437857Y1263572D01*
X106509285Y1120715D01*
X106509285Y692143D01*
X106437857Y549286D01*
X106366428Y477858D01*
X106223571Y406429D01*
X105937857Y406429D01*
X105795000Y477858D01*
X107152142Y406429D02*
X107152142Y1406429D01*
X107152142Y1906429D02*
X107080714Y1835000D01*
X107152142Y1763572D01*
X107223571Y1835000D01*
X107152142Y1906429D01*
X107152142Y1763572D01*
X107866428Y1192143D02*
X109009285Y1192143D01*
X109009285Y763572D02*
X107866428Y763572D01*
X110509285Y406429D02*
X109652142Y406429D01*
X110080714Y406429D02*
X110080714Y1906429D01*
X109937857Y1692143D01*
X109795000Y1549286D01*
X109652142Y1477858D01*
X111866428Y1906429D02*
X111152142Y1906429D01*
X111080714Y1192143D01*
X111152142Y1263572D01*
X111295000Y1335000D01*
X111652142Y1335000D01*
X111795000Y1263572D01*
X111866428Y1192143D01*
X111937857Y1049286D01*
X111937857Y692143D01*
X111866428Y549286D01*
X111795000Y477858D01*
X111652142Y406429D01*
X111295000Y406429D01*
X111152142Y477858D01*
X111080714Y549286D01*
X112580714Y549286D02*
X112652142Y477858D01*
X112580714Y406429D01*
X112509285Y477858D01*
X112580714Y549286D01*
X112580714Y406429D01*
X113152142Y1906429D02*
X114152142Y1906429D01*
X113509285Y406429D01*
X115509285Y406429D02*
X114652142Y406429D01*
X115080714Y406429D02*
X115080714Y1906429D01*
X114937857Y1692143D01*
X114795000Y1549286D01*
X114652142Y1477858D01*
X117295000Y406429D02*
X117295000Y1406429D01*
X117295000Y1263572D02*
X117366428Y1335000D01*
X117509285Y1406429D01*
X117723571Y1406429D01*
X117866428Y1335000D01*
X117937857Y1192143D01*
X117937857Y406429D01*
X117937857Y1192143D02*
X118009285Y1335000D01*
X118152142Y1406429D01*
X118366428Y1406429D01*
X118509285Y1335000D01*
X118580714Y1192143D01*
X118580714Y406429D01*
X119295000Y406429D02*
X119295000Y1406429D01*
X119295000Y1263572D02*
X119366428Y1335000D01*
X119509285Y1406429D01*
X119723571Y1406429D01*
X119866428Y1335000D01*
X119937857Y1192143D01*
X119937857Y406429D01*
X119937857Y1192143D02*
X120009285Y1335000D01*
X120152142Y1406429D01*
X120366428Y1406429D01*
X120509285Y1335000D01*
X120580714Y1192143D01*
X120580714Y406429D01*
X89937857Y-580000D02*
X89795000Y-508571D01*
X89580714Y-508571D01*
X89366428Y-580000D01*
X89223571Y-722857D01*
X89152142Y-865714D01*
X89080714Y-1151428D01*
X89080714Y-1365714D01*
X89152142Y-1651428D01*
X89223571Y-1794285D01*
X89366428Y-1937142D01*
X89580714Y-2008571D01*
X89723571Y-2008571D01*
X89937857Y-1937142D01*
X90009285Y-1865714D01*
X90009285Y-1365714D01*
X89723571Y-1365714D01*
X91295000Y-2008571D02*
X91295000Y-1222857D01*
X91223571Y-1080000D01*
X91080714Y-1008571D01*
X90795000Y-1008571D01*
X90652142Y-1080000D01*
X91295000Y-1937142D02*
X91152142Y-2008571D01*
X90795000Y-2008571D01*
X90652142Y-1937142D01*
X90580714Y-1794285D01*
X90580714Y-1651428D01*
X90652142Y-1508571D01*
X90795000Y-1437142D01*
X91152142Y-1437142D01*
X91295000Y-1365714D01*
X92009285Y-1008571D02*
X92009285Y-2508571D01*
X92009285Y-1080000D02*
X92152142Y-1008571D01*
X92437857Y-1008571D01*
X92580714Y-1080000D01*
X92652142Y-1151428D01*
X92723571Y-1294285D01*
X92723571Y-1722857D01*
X92652142Y-1865714D01*
X92580714Y-1937142D01*
X92437857Y-2008571D01*
X92152142Y-2008571D01*
X92009285Y-1937142D01*
X93366428Y-1222857D02*
X94509285Y-1222857D01*
X94509285Y-1651428D02*
X93366428Y-1651428D01*
X95509285Y-508571D02*
X95652142Y-508571D01*
X95795000Y-580000D01*
X95866428Y-651428D01*
X95937857Y-794285D01*
X96009285Y-1080000D01*
X96009285Y-1437142D01*
X95937857Y-1722857D01*
X95866428Y-1865714D01*
X95795000Y-1937142D01*
X95652142Y-2008571D01*
X95509285Y-2008571D01*
X95366428Y-1937142D01*
X95295000Y-1865714D01*
X95223571Y-1722857D01*
X95152142Y-1437142D01*
X95152142Y-1080000D01*
X95223571Y-794285D01*
X95295000Y-651428D01*
X95366428Y-580000D01*
X95509285Y-508571D01*
X96652142Y-1865714D02*
X96723571Y-1937142D01*
X96652142Y-2008571D01*
X96580714Y-1937142D01*
X96652142Y-1865714D01*
X96652142Y-2008571D01*
X97223571Y-508571D02*
X98152142Y-508571D01*
X97652142Y-1080000D01*
X97866428Y-1080000D01*
X98009285Y-1151428D01*
X98080714Y-1222857D01*
X98152142Y-1365714D01*
X98152142Y-1722857D01*
X98080714Y-1865714D01*
X98009285Y-1937142D01*
X97866428Y-2008571D01*
X97437857Y-2008571D01*
X97295000Y-1937142D01*
X97223571Y-1865714D01*
X99937857Y-2008571D02*
X99937857Y-1008571D01*
X99937857Y-1151428D02*
X100009285Y-1080000D01*
X100152142Y-1008571D01*
X100366428Y-1008571D01*
X100509285Y-1080000D01*
X100580714Y-1222857D01*
X100580714Y-2008571D01*
X100580714Y-1222857D02*
X100652142Y-1080000D01*
X100795000Y-1008571D01*
X101009285Y-1008571D01*
X101152142Y-1080000D01*
X101223571Y-1222857D01*
X101223571Y-2008571D01*
X101937857Y-2008571D02*
X101937857Y-1008571D01*
X101937857Y-1151428D02*
X102009285Y-1080000D01*
X102152142Y-1008571D01*
X102366428Y-1008571D01*
X102509285Y-1080000D01*
X102580714Y-1222857D01*
X102580714Y-2008571D01*
X102580714Y-1222857D02*
X102652142Y-1080000D01*
X102795000Y-1008571D01*
X103009285Y-1008571D01*
X103152142Y-1080000D01*
X103223571Y-1222857D01*
X103223571Y-2008571D01*
X89866428Y-4423571D02*
X89152142Y-4423571D01*
X89152142Y-2923571D01*
X90580714Y-4423571D02*
X90437857Y-4352142D01*
X90366428Y-4209285D01*
X90366428Y-2923571D01*
X91152142Y-4423571D02*
X91152142Y-3423571D01*
X91152142Y-2923571D02*
X91080714Y-2995000D01*
X91152142Y-3066428D01*
X91223571Y-2995000D01*
X91152142Y-2923571D01*
X91152142Y-3066428D01*
X91866428Y-3423571D02*
X91866428Y-4423571D01*
X91866428Y-3566428D02*
X91937857Y-3495000D01*
X92080714Y-3423571D01*
X92295000Y-3423571D01*
X92437857Y-3495000D01*
X92509285Y-3637857D01*
X92509285Y-4423571D01*
X93795000Y-4352142D02*
X93652142Y-4423571D01*
X93366428Y-4423571D01*
X93223571Y-4352142D01*
X93152142Y-4209285D01*
X93152142Y-3637857D01*
X93223571Y-3495000D01*
X93366428Y-3423571D01*
X93652142Y-3423571D01*
X93795000Y-3495000D01*
X93866428Y-3637857D01*
X93866428Y-3780714D01*
X93152142Y-3923571D01*
X94437857Y-4352142D02*
X94580714Y-4423571D01*
X94866428Y-4423571D01*
X95009285Y-4352142D01*
X95080714Y-4209285D01*
X95080714Y-4137857D01*
X95009285Y-3995000D01*
X94866428Y-3923571D01*
X94652142Y-3923571D01*
X94509285Y-3852142D01*
X94437857Y-3709285D01*
X94437857Y-3637857D01*
X94509285Y-3495000D01*
X94652142Y-3423571D01*
X94866428Y-3423571D01*
X95009285Y-3495000D01*
X95723571Y-3637857D02*
X96866428Y-3637857D01*
X96866428Y-4066428D02*
X95723571Y-4066428D01*
X97437857Y-2923571D02*
X98366428Y-2923571D01*
X97866428Y-3495000D01*
X98080714Y-3495000D01*
X98223571Y-3566428D01*
X98295000Y-3637857D01*
X98366428Y-3780714D01*
X98366428Y-4137857D01*
X98295000Y-4280714D01*
X98223571Y-4352142D01*
X98080714Y-4423571D01*
X97652142Y-4423571D01*
X97509285Y-4352142D01*
X97437857Y-4280714D01*
X99295000Y-2923571D02*
X99437857Y-2923571D01*
X99580714Y-2995000D01*
X99652142Y-3066428D01*
X99723571Y-3209285D01*
X99795000Y-3495000D01*
X99795000Y-3852142D01*
X99723571Y-4137857D01*
X99652142Y-4280714D01*
X99580714Y-4352142D01*
X99437857Y-4423571D01*
X99295000Y-4423571D01*
X99152142Y-4352142D01*
X99080714Y-4280714D01*
X99009285Y-4137857D01*
X98937857Y-3852142D01*
X98937857Y-3495000D01*
X99009285Y-3209285D01*
X99080714Y-3066428D01*
X99152142Y-2995000D01*
X99295000Y-2923571D01*
X100437857Y-4423571D02*
X100437857Y-3423571D01*
X100437857Y-3566428D02*
X100509285Y-3495000D01*
X100652142Y-3423571D01*
X100866428Y-3423571D01*
X101009285Y-3495000D01*
X101080714Y-3637857D01*
X101080714Y-4423571D01*
X101080714Y-3637857D02*
X101152142Y-3495000D01*
X101295000Y-3423571D01*
X101509285Y-3423571D01*
X101652142Y-3495000D01*
X101723571Y-3637857D01*
X101723571Y-4423571D01*
X102437857Y-4423571D02*
X102437857Y-3423571D01*
X102437857Y-3566428D02*
X102509285Y-3495000D01*
X102652142Y-3423571D01*
X102866428Y-3423571D01*
X103009285Y-3495000D01*
X103080714Y-3637857D01*
X103080714Y-4423571D01*
X103080714Y-3637857D02*
X103152142Y-3495000D01*
X103295000Y-3423571D01*
X103509285Y-3423571D01*
X103652142Y-3495000D01*
X103723571Y-3637857D01*
X103723571Y-4423571D01*
X89009285Y-5338571D02*
X89366428Y-6838571D01*
X89652142Y-5767142D01*
X89937857Y-6838571D01*
X90295000Y-5338571D01*
X90866428Y-6838571D02*
X90866428Y-5838571D01*
X90866428Y-5338571D02*
X90795000Y-5410000D01*
X90866428Y-5481428D01*
X90937857Y-5410000D01*
X90866428Y-5338571D01*
X90866428Y-5481428D01*
X92223571Y-6838571D02*
X92223571Y-5338571D01*
X92223571Y-6767142D02*
X92080714Y-6838571D01*
X91795000Y-6838571D01*
X91652142Y-6767142D01*
X91580714Y-6695714D01*
X91509285Y-6552857D01*
X91509285Y-6124285D01*
X91580714Y-5981428D01*
X91652142Y-5910000D01*
X91795000Y-5838571D01*
X92080714Y-5838571D01*
X92223571Y-5910000D01*
X92723571Y-5838571D02*
X93295000Y-5838571D01*
X92937857Y-5338571D02*
X92937857Y-6624285D01*
X93009285Y-6767142D01*
X93152142Y-6838571D01*
X93295000Y-6838571D01*
X93795000Y-6838571D02*
X93795000Y-5338571D01*
X94437857Y-6838571D02*
X94437857Y-6052857D01*
X94366428Y-5910000D01*
X94223571Y-5838571D01*
X94009285Y-5838571D01*
X93866428Y-5910000D01*
X93795000Y-5981428D01*
X95152142Y-6052857D02*
X96295000Y-6052857D01*
X96295000Y-6481428D02*
X95152142Y-6481428D01*
X96866428Y-5338571D02*
X97795000Y-5338571D01*
X97295000Y-5910000D01*
X97509285Y-5910000D01*
X97652142Y-5981428D01*
X97723571Y-6052857D01*
X97795000Y-6195714D01*
X97795000Y-6552857D01*
X97723571Y-6695714D01*
X97652142Y-6767142D01*
X97509285Y-6838571D01*
X97080714Y-6838571D01*
X96937857Y-6767142D01*
X96866428Y-6695714D01*
X99580714Y-6838571D02*
X99580714Y-5838571D01*
X99580714Y-5981428D02*
X99652142Y-5910000D01*
X99795000Y-5838571D01*
X100009285Y-5838571D01*
X100152142Y-5910000D01*
X100223571Y-6052857D01*
X100223571Y-6838571D01*
X100223571Y-6052857D02*
X100295000Y-5910000D01*
X100437857Y-5838571D01*
X100652142Y-5838571D01*
X100795000Y-5910000D01*
X100866428Y-6052857D01*
X100866428Y-6838571D01*
X101580714Y-6838571D02*
X101580714Y-5838571D01*
X101580714Y-5981428D02*
X101652142Y-5910000D01*
X101795000Y-5838571D01*
X102009285Y-5838571D01*
X102152142Y-5910000D01*
X102223571Y-6052857D01*
X102223571Y-6838571D01*
X102223571Y-6052857D02*
X102295000Y-5910000D01*
X102437857Y-5838571D01*
X102652142Y-5838571D01*
X102795000Y-5910000D01*
X102866428Y-6052857D01*
X102866428Y-6838571D01*
M02*
